<?xml version="1.0" encoding="UTF-8"?><svg id="_レイヤー_1" xmlns="http://www.w3.org/2000/svg" viewBox="0 0 128 128"><defs><style>.cls-1{fill:#323232;stroke-width:0px;}</style></defs><path class="cls-1" d="m64,22c23.16,0,42,18.84,42,42s-18.84,42-42,42-42-18.84-42-42,18.84-42,42-42m0-8c-27.61,0-50,22.39-50,50s22.39,50,50,50,50-22.39,50-50S91.61,14,64,14h0Z"/><path class="cls-1" d="m83.77,60.54l-27.88-16.1c-2.67-1.54-6,.38-6,3.46v32.2c0,3.08,3.33,5,6,3.46l27.88-16.1c2.67-1.54,2.67-5.39,0-6.93Z"/></svg>